<?xml version="1.0" encoding="utf-8"?>
<!-- Generator: Adobe Illustrator 15.0.0, SVG Export Plug-In . SVG Version: 6.00 Build 0)  -->
<!DOCTYPE svg PUBLIC "-//W3C//DTD SVG 1.1//EN" "http://www.w3.org/Graphics/SVG/1.1/DTD/svg11.dtd">
<svg version="1.1" id="Layer_1" xmlns="http://www.w3.org/2000/svg" xmlns:xlink="http://www.w3.org/1999/xlink" x="0px" y="0px"
	 width="306.087px" height="59.131px" viewBox="0 0 306.087 59.131" enable-background="new 0 0 306.087 59.131"
	 xml:space="preserve">
<g>
	<path fill="#83C4D0" d="M25.854,18.074c-2.657-2.694-5.854-4.04-9.59-4.04c-2.144,0-4.085,0.46-5.823,1.38
		c-1.742,0.918-3.276,2.299-4.613,4.134v-4.837H2.44V50.65h3.388V36.504c1.414,1.727,3.002,3.021,4.758,3.893
		c1.755,0.871,3.68,1.306,5.773,1.306c3.723,0,6.898-1.35,9.532-4.051s3.95-5.983,3.95-9.855
		C29.841,24.008,28.512,20.766,25.854,18.074z M24.984,33.221c-0.949,1.69-2.225,3.004-3.826,3.949
		c-1.599,0.942-3.309,1.413-5.125,1.413c-1.851,0-3.607-0.468-5.272-1.402c-1.666-0.933-2.943-2.197-3.838-3.792
		c-0.892-1.595-1.339-3.39-1.339-5.386c0-3.046,1.003-5.592,3.005-7.638c2.002-2.043,4.468-3.064,7.396-3.064
		c1.882,0,3.617,0.461,5.213,1.387c1.591,0.931,2.857,2.227,3.8,3.902c0.938,1.678,1.411,3.447,1.411,5.315
		C26.408,29.758,25.931,31.53,24.984,33.221z"/>
	<path fill="#83C4D0" d="M59.054,14.711v4.837c-1.321-1.835-2.857-3.216-4.605-4.134c-1.75-0.92-3.707-1.38-5.866-1.38
		c-3.739,0-6.941,1.346-9.6,4.04c-2.66,2.691-3.991,5.934-3.991,9.722c0,3.872,1.316,7.154,3.955,9.855
		c2.636,2.701,5.814,4.051,9.54,4.051c2.095,0,4.026-0.435,5.793-1.306c1.764-0.871,3.356-2.166,4.774-3.893v4.521h3.338V14.711
		H59.054z M57.933,33.389c-0.896,1.595-2.171,2.859-3.83,3.792c-1.658,0.935-3.414,1.402-5.267,1.402
		c-1.836,0-3.556-0.471-5.158-1.413c-1.602-0.945-2.879-2.259-3.828-3.949s-1.425-3.463-1.425-5.315c0-1.868,0.47-3.638,1.412-5.315
		c0.94-1.676,2.211-2.972,3.806-3.902c1.595-0.926,3.334-1.387,5.218-1.387c2.933,0,5.398,1.021,7.404,3.064
		c2.006,2.046,3.008,4.592,3.008,7.638C59.273,29.999,58.825,31.794,57.933,33.389z"/>
	<path fill="#83C4D0" d="M95.554,20.178l-2.685,1.668c-2.318-3.077-5.482-4.617-9.494-4.617c-3.204,0-5.864,1.028-7.981,3.091
		c-2.119,2.061-3.179,4.565-3.179,7.512c0,1.919,0.486,3.722,1.462,5.413c0.976,1.689,2.312,3.004,4.01,3.937
		c1.701,0.935,3.603,1.402,5.713,1.402c3.866,0,7.023-1.539,9.47-4.618l2.685,1.766c-1.258,1.894-2.945,3.36-5.066,4.405
		s-4.534,1.566-7.243,1.566c-4.16,0-7.61-1.322-10.351-3.967c-2.743-2.643-4.112-5.858-4.112-9.648c0-2.548,0.643-4.916,1.923-7.098
		c1.281-2.187,3.043-3.891,5.285-5.117c2.241-1.224,4.748-1.838,7.521-1.838c1.742,0,3.423,0.267,5.044,0.798
		c1.62,0.533,2.992,1.227,4.121,2.08C93.804,17.768,94.764,18.855,95.554,20.178z"/>
	<path fill="#83C4D0" d="M103.232,3.876c0.769,0,1.429,0.274,1.975,0.823c0.544,0.548,0.82,1.208,0.82,1.981
		c0,0.762-0.276,1.412-0.82,1.962c-0.546,0.548-1.206,0.819-1.975,0.819c-0.755,0-1.404-0.271-1.951-0.819
		c-0.547-0.55-0.818-1.2-0.818-1.962c0-0.773,0.271-1.434,0.818-1.981C101.828,4.15,102.477,3.876,103.232,3.876z"/>
	<rect x="101.551" y="14.711" fill="#83C4D0" width="3.385" height="26.314"/>
	<path fill="#83C4D0" d="M118.864,3.876c1.098,0,2.412,0.227,3.943,0.679v3.314c-1.242-0.533-2.306-0.801-3.193-0.801
		c-0.66,0-1.208,0.134-1.645,0.399c-0.434,0.265-0.709,0.573-0.821,0.919c-0.113,0.347-0.17,1.271-0.17,2.769l-0.004,3.556h5.494
		v2.926h-5.496l-0.019,23.389h-3.386V17.637h-3.46v-2.926h3.46v-4.109c0-1.889,0.174-3.234,0.521-4.04
		c0.346-0.806,0.935-1.455,1.766-1.947C116.686,4.123,117.688,3.876,118.864,3.876L118.864,3.876z"/>
	<path fill="#83C4D0" d="M128.699,3.876c0.772,0,1.429,0.274,1.977,0.823c0.545,0.548,0.818,1.208,0.818,1.981
		c0,0.762-0.273,1.412-0.818,1.962c-0.548,0.548-1.204,0.819-1.977,0.819c-0.755,0-1.404-0.271-1.951-0.819
		c-0.545-0.55-0.818-1.2-0.818-1.962c0-0.773,0.273-1.434,0.818-1.981C127.294,4.15,127.944,3.876,128.699,3.876z"/>
	<rect x="127.02" y="14.711" fill="#83C4D0" width="3.386" height="26.314"/>
	<path fill="#83C4D0" d="M162.98,20.178l-2.685,1.668c-2.318-3.077-5.484-4.617-9.496-4.617c-3.203,0-5.863,1.028-7.982,3.091
		c-2.118,2.061-3.177,4.565-3.177,7.512c0,1.919,0.486,3.722,1.462,5.413c0.975,1.689,2.312,3.004,4.011,3.937
		c1.698,0.935,3.602,1.402,5.712,1.402c3.865,0,7.021-1.539,9.471-4.618l2.685,1.766c-1.258,1.894-2.946,3.36-5.066,4.405
		c-2.121,1.045-4.536,1.566-7.244,1.566c-4.159,0-7.61-1.322-10.352-3.967c-2.741-2.643-4.113-5.858-4.113-9.648
		c0-2.548,0.643-4.916,1.926-7.098c1.28-2.187,3.041-3.891,5.283-5.117c2.242-1.224,4.747-1.838,7.521-1.838
		c1.743,0,3.423,0.267,5.042,0.798c1.623,0.533,2.997,1.227,4.125,2.08C161.23,17.768,162.189,18.855,162.98,20.178z"/>
	<path fill="#807F80" d="M169.484,4.555h3.386v14.873c1.368-1.807,2.879-3.155,4.523-4.051c1.642-0.895,3.425-1.343,5.343-1.343
		c1.967,0,3.714,0.5,5.236,1.499c1.523,1.001,2.648,2.344,3.374,4.027c0.726,1.686,1.09,4.325,1.09,7.923v13.542h-3.386V28.474
		c0-3.028-0.123-5.056-0.364-6.07c-0.419-1.741-1.182-3.053-2.286-3.932c-1.104-0.877-2.551-1.318-4.341-1.318
		c-2.049,0-3.88,0.678-5.503,2.033c-1.619,1.354-2.687,3.03-3.203,5.029c-0.325,1.291-0.483,3.676-0.483,7.16v9.649h-3.386V4.555z"
		/>
	<path fill="#807F80" d="M222.227,18.434c-2.663-2.932-6.023-4.399-10.078-4.399c-4.069,0-7.437,1.476-10.104,4.426
		c-2.42,2.679-3.631,5.837-3.631,9.483c0,3.674,1.277,6.888,3.839,9.636c2.562,2.75,5.858,4.123,9.896,4.123
		c4.022,0,7.314-1.373,9.872-4.123c2.559-2.748,3.842-5.962,3.842-9.636C225.863,24.282,224.65,21.113,222.227,18.434z
		 M221.043,33.337c-0.92,1.643-2.165,2.911-3.737,3.807c-1.568,0.895-3.292,1.343-5.169,1.343c-1.876,0-3.601-0.448-5.169-1.343
		c-1.568-0.896-2.815-2.164-3.738-3.807c-0.923-1.647-1.383-3.42-1.383-5.323c0-2.95,1.011-5.466,3.033-7.546
		s4.442-3.118,7.257-3.118c2.8,0,5.214,1.038,7.245,3.118c2.029,2.08,3.045,4.596,3.045,7.546
		C222.427,29.917,221.966,31.689,221.043,33.337z"/>
	<path fill="#807F80" d="M232.103,14.711h3.386v4.548c1.179-1.679,2.389-2.902,3.632-3.677c1.714-1.032,3.511-1.548,5.4-1.548
		c1.273,0,2.484,0.25,3.631,0.752c1.146,0.498,2.084,1.163,2.81,1.994c0.728,0.831,1.357,2.019,1.888,3.565
		c1.128-2.062,2.531-3.628,4.224-4.703c1.688-1.073,3.507-1.608,5.451-1.608c1.819,0,3.425,0.46,4.814,1.38
		c1.39,0.918,2.424,2.199,3.102,3.845c0.676,1.646,1.013,4.112,1.013,7.401v14.365h-3.459V26.66c0-2.821-0.2-4.761-0.603-5.816
		c-0.401-1.055-1.088-1.909-2.06-2.555c-0.975-0.641-2.135-0.966-3.482-0.966c-1.642,0-3.141,0.484-4.498,1.452
		c-1.357,0.969-2.352,2.256-2.976,3.868c-0.628,1.613-0.942,4.306-0.942,8.08v10.302h-3.385v-13.47c0-3.177-0.195-5.334-0.592-6.47
		c-0.395-1.138-1.086-2.048-2.069-2.733c-0.981-0.686-2.151-1.029-3.507-1.029c-1.562,0-3.025,0.473-4.388,1.414
		c-1.364,0.944-2.37,2.214-3.022,3.811c-0.653,1.596-0.981,4.039-0.981,7.329v11.148h-3.386V14.711z"/>
	<path fill="#807F80" d="M297.855,36.027c-0.89,0.773-1.966,1.392-3.232,1.856c-1.269,0.468-2.57,0.699-3.911,0.699
		c-2.777,0-5.108-0.978-6.998-2.934c-1.888-1.955-2.865-4.458-2.929-7.515h23.675c-0.03-3.595-0.998-6.593-2.904-8.997
		c-2.678-3.403-6.261-5.104-10.747-5.104c-4.356,0-7.836,1.662-10.434,4.983c-2.049,2.61-3.074,5.586-3.074,8.926
		c0,3.545,1.212,6.727,3.633,9.54c2.42,2.812,5.775,4.219,10.069,4.219c1.937,0,3.669-0.295,5.204-0.882
		c1.533-0.589,2.914-1.447,4.139-2.577c1.229-1.127,2.309-2.608,3.246-4.45l-2.854-1.496
		C299.704,34.015,298.744,35.258,297.855,36.027z M284.197,19.767c1.857-1.662,4.076-2.492,6.659-2.492
		c1.565,0,3.061,0.331,4.479,0.994c1.422,0.659,2.562,1.528,3.426,2.61c0.864,1.08,1.524,2.522,1.977,4.329h-19.614
		C281.815,22.791,282.841,20.976,284.197,19.767z"/>
	<path fill="#F47F54" d="M100.791,43.936c0.319,0,0.701,0.067,1.15,0.198V45.1c-0.363-0.155-0.674-0.231-0.932-0.231
		c-0.194,0-0.354,0.038-0.48,0.115s-0.207,0.167-0.239,0.269c-0.033,0.101-0.05,0.369-0.05,0.807l-0.002,1.039h1.604v0.853h-1.604
		l-0.005,6.821h-0.988V47.95h-1.009v-0.853h1.009v-1.2c0-0.549,0.05-0.942,0.151-1.178s0.272-0.425,0.516-0.569
		C100.154,44.008,100.447,43.936,100.791,43.936L100.791,43.936z M103.197,47.098h0.987v3.583c0,0.875,0.046,1.478,0.142,1.806
		c0.142,0.469,0.409,0.842,0.808,1.114c0.399,0.273,0.873,0.409,1.424,0.409c0.553,0,1.018-0.133,1.402-0.399
		c0.385-0.264,0.649-0.615,0.796-1.048c0.101-0.293,0.148-0.923,0.148-1.882v-3.583h1.009v3.765c0,1.061-0.123,1.857-0.37,2.392
		c-0.247,0.539-0.619,0.958-1.115,1.259c-0.495,0.306-1.118,0.457-1.864,0.457c-0.749,0-1.373-0.151-1.874-0.457
		c-0.501-0.301-0.875-0.725-1.122-1.268c-0.247-0.542-0.37-1.361-0.37-2.452V47.098z M111.728,47.098h1.01v1.12
		c0.299-0.441,0.619-0.773,0.952-0.992c0.335-0.219,0.683-0.326,1.044-0.326c0.271,0,0.565,0.088,0.875,0.259l-0.516,0.835
		c-0.207-0.091-0.381-0.135-0.521-0.135c-0.328,0-0.646,0.135-0.953,0.405c-0.305,0.271-0.539,0.689-0.697,1.26
		c-0.122,0.439-0.184,1.32-0.184,2.651v2.597h-1.01V47.098z M116.755,47.098h0.988v1.373c0.396-0.525,0.833-0.919,1.312-1.179
		c0.478-0.263,1.002-0.393,1.566-0.393c0.572,0,1.081,0.145,1.526,0.438c0.446,0.291,0.774,0.683,0.984,1.178
		c0.212,0.492,0.317,1.261,0.317,2.309v3.948h-0.988v-3.659c0-0.886-0.037-1.477-0.11-1.774c-0.113-0.507-0.332-0.887-0.656-1.143
		c-0.325-0.26-0.749-0.386-1.271-0.386c-0.599,0-1.133,0.196-1.605,0.59c-0.473,0.397-0.785,0.885-0.936,1.469
		c-0.095,0.382-0.141,1.078-0.141,2.088v2.815h-0.988V47.098z M125.905,43.936c0.224,0,0.416,0.083,0.575,0.242
		c0.158,0.158,0.239,0.35,0.239,0.577c0,0.221-0.081,0.41-0.239,0.569c-0.159,0.162-0.352,0.239-0.575,0.239
		c-0.223,0-0.41-0.077-0.57-0.239c-0.159-0.159-0.238-0.349-0.238-0.569c0-0.228,0.079-0.419,0.238-0.577
		C125.495,44.019,125.682,43.936,125.905,43.936z M125.415,47.098h0.987v7.674h-0.987V47.098z M130.181,46.899
		c0.705,0,1.418,0.343,2.134,1.036l-0.635,0.656c-0.528-0.512-1.046-0.771-1.551-0.771c-0.319,0-0.595,0.107-0.823,0.32
		c-0.229,0.213-0.342,0.456-0.342,0.739c0,0.249,0.094,0.488,0.281,0.713c0.188,0.229,0.586,0.502,1.188,0.811
		c0.735,0.381,1.236,0.747,1.502,1.102c0.257,0.359,0.387,0.76,0.387,1.209c0,0.627-0.222,1.162-0.664,1.6s-0.997,0.655-1.661,0.655
		c-0.443,0-0.865-0.097-1.268-0.289c-0.404-0.193-0.737-0.46-1-0.797l0.62-0.705c0.505,0.567,1.038,0.853,1.605,0.853
		c0.396,0,0.732-0.128,1.012-0.38c0.276-0.256,0.417-0.555,0.417-0.898c0-0.283-0.091-0.533-0.276-0.754
		c-0.184-0.215-0.599-0.489-1.243-0.816c-0.695-0.359-1.167-0.712-1.415-1.061c-0.251-0.347-0.374-0.745-0.374-1.19
		c0-0.586,0.197-1.07,0.596-1.454C129.069,47.092,129.572,46.899,130.181,46.899L130.181,46.899z M134.07,44.134h0.987v4.337
		c0.4-0.525,0.839-0.919,1.319-1.179c0.48-0.263,1-0.393,1.56-0.393c0.575,0,1.083,0.145,1.527,0.438
		c0.444,0.291,0.773,0.683,0.984,1.174c0.21,0.491,0.318,1.262,0.318,2.312v3.948h-0.989v-3.659c0-0.886-0.034-1.477-0.104-1.774
		c-0.124-0.507-0.346-0.887-0.667-1.143c-0.323-0.26-0.744-0.386-1.267-0.386c-0.597,0-1.133,0.196-1.605,0.59
		c-0.473,0.397-0.785,0.885-0.936,1.469c-0.095,0.375-0.141,1.071-0.141,2.088v2.815h-0.987V44.134z M143.217,43.936
		c0.226,0,0.418,0.083,0.577,0.242c0.159,0.158,0.238,0.35,0.238,0.577c0,0.221-0.079,0.41-0.238,0.569
		c-0.159,0.162-0.352,0.239-0.577,0.239c-0.218,0-0.408-0.077-0.567-0.239c-0.159-0.159-0.24-0.349-0.24-0.569
		c0-0.228,0.081-0.419,0.24-0.577C142.809,44.019,143,43.936,143.217,43.936z M142.727,47.098h0.988v7.674h-0.988V47.098z
		 M145.769,47.098h0.988v1.373c0.395-0.525,0.832-0.919,1.312-1.179c0.479-0.263,1.002-0.393,1.566-0.393
		c0.572,0,1.082,0.145,1.527,0.438c0.444,0.291,0.772,0.683,0.984,1.178c0.212,0.492,0.317,1.261,0.317,2.309v3.948h-0.988v-3.659
		c0-0.886-0.037-1.477-0.109-1.774c-0.116-0.507-0.335-0.887-0.659-1.143c-0.324-0.26-0.748-0.386-1.271-0.386
		c-0.597,0-1.133,0.196-1.605,0.59c-0.473,0.397-0.783,0.885-0.935,1.469c-0.096,0.382-0.141,1.078-0.141,2.088v2.815h-0.988V47.098
		z M161.201,47.098h0.99v6.116c0,1.077-0.094,1.864-0.282,2.362c-0.26,0.706-0.708,1.248-1.348,1.628
		c-0.641,0.382-1.409,0.572-2.308,0.572c-0.657,0-1.251-0.094-1.775-0.28c-0.523-0.185-0.95-0.434-1.28-0.75
		c-0.327-0.312-0.632-0.771-0.908-1.376h1.07c0.292,0.509,0.669,0.886,1.132,1.131c0.462,0.243,1.033,0.366,1.716,0.366
		c0.673,0,1.243-0.128,1.706-0.376c0.466-0.253,0.795-0.567,0.993-0.946c0.198-0.38,0.294-0.994,0.294-1.84v-0.394
		c-0.37,0.471-0.825,0.831-1.361,1.083c-0.536,0.253-1.104,0.377-1.708,0.377c-0.707,0-1.37-0.175-1.993-0.524
		c-0.621-0.352-1.103-0.822-1.439-1.415c-0.339-0.594-0.509-1.246-0.509-1.955c0-0.711,0.176-1.371,0.529-1.986
		c0.354-0.612,0.842-1.1,1.465-1.454c0.625-0.359,1.284-0.537,1.977-0.537c0.574,0,1.106,0.118,1.604,0.355
		c0.497,0.239,0.976,0.631,1.436,1.174V47.098z M158.29,47.852c-0.561,0-1.079,0.135-1.559,0.403
		c-0.48,0.272-0.856,0.646-1.131,1.124c-0.271,0.478-0.407,0.992-0.407,1.548c0,0.842,0.282,1.537,0.845,2.089
		c0.566,0.548,1.297,0.824,2.194,0.824c0.908,0,1.64-0.272,2.191-0.817c0.553-0.547,0.829-1.263,0.829-2.153
		c0-0.575-0.127-1.094-0.381-1.548c-0.254-0.453-0.614-0.811-1.079-1.076C159.326,47.982,158.825,47.852,158.29,47.852z
		 M167.482,47.098h1.044l2.639,5.908l2.562-5.908h1.051l-4.58,10.483h-1.044l1.479-3.392L167.482,47.098z M176.74,48.188
		c0.776-0.858,1.761-1.289,2.945-1.289c1.183,0,2.164,0.428,2.943,1.283c0.706,0.778,1.059,1.704,1.059,2.772
		c0,1.073-0.374,2.01-1.121,2.812c-0.746,0.803-1.707,1.203-2.881,1.203c-1.176,0-2.137-0.4-2.885-1.203
		c-0.749-0.802-1.121-1.738-1.121-2.812C175.679,49.892,176.033,48.973,176.74,48.188L176.74,48.188z M179.683,47.867
		c-0.822,0-1.529,0.301-2.116,0.908c-0.591,0.606-0.888,1.34-0.888,2.202c0,0.553,0.137,1.071,0.407,1.55
		c0.268,0.482,0.629,0.852,1.09,1.111c0.456,0.262,0.959,0.393,1.507,0.393s1.051-0.131,1.509-0.393
		c0.458-0.26,0.82-0.629,1.091-1.111c0.268-0.479,0.402-0.997,0.402-1.55c0-0.862-0.297-1.596-0.888-2.202
		C181.203,48.168,180.5,47.867,179.683,47.867z M185.384,47.098h0.987v3.583c0,0.875,0.05,1.478,0.145,1.806
		c0.142,0.469,0.409,0.842,0.809,1.114c0.396,0.273,0.871,0.409,1.422,0.409c0.553,0,1.02-0.133,1.403-0.399
		c0.385-0.264,0.65-0.615,0.795-1.048c0.099-0.293,0.147-0.923,0.147-1.882v-3.583h1.009v3.765c0,1.061-0.123,1.857-0.37,2.392
		c-0.246,0.539-0.617,0.958-1.112,1.259c-0.498,0.306-1.119,0.457-1.869,0.457c-0.746,0-1.372-0.151-1.873-0.457
		c-0.499-0.301-0.873-0.725-1.118-1.268c-0.249-0.542-0.374-1.361-0.374-2.452V47.098z M193.926,47.098h1.009v1.12
		c0.304-0.441,0.621-0.773,0.954-0.992c0.334-0.219,0.68-0.326,1.043-0.326c0.273,0,0.566,0.088,0.875,0.259l-0.516,0.835
		c-0.206-0.091-0.379-0.135-0.521-0.135c-0.329,0-0.646,0.135-0.953,0.405c-0.307,0.271-0.539,0.689-0.699,1.26
		c-0.12,0.439-0.184,1.32-0.184,2.651v2.597h-1.009V47.098z M202.658,47.098h0.988v1.409c0.392-0.536,0.84-0.938,1.349-1.207
		c0.507-0.268,1.071-0.4,1.696-0.4c1.091,0,2.023,0.395,2.8,1.178c0.774,0.784,1.163,1.729,1.163,2.836
		c0,1.13-0.385,2.085-1.152,2.875c-0.77,0.787-1.695,1.182-2.78,1.182c-0.612,0-1.173-0.128-1.685-0.38
		c-0.512-0.256-0.975-0.636-1.391-1.137v4.128h-0.988V47.098z M206.61,47.852c-0.854,0-1.573,0.298-2.155,0.893
		c-0.586,0.598-0.879,1.341-0.879,2.229c0,0.582,0.131,1.104,0.392,1.572c0.261,0.464,0.635,0.833,1.119,1.105
		c0.486,0.272,0.998,0.406,1.538,0.406c0.531,0,1.03-0.136,1.496-0.41c0.467-0.275,0.839-0.658,1.114-1.153
		c0.278-0.493,0.417-1.009,0.417-1.551s-0.139-1.061-0.413-1.548c-0.273-0.487-0.642-0.87-1.108-1.141
		C207.665,47.986,207.161,47.852,206.61,47.852z M220.152,47.098v7.674h-0.975v-1.318c-0.412,0.501-0.876,0.881-1.392,1.137
		c-0.515,0.252-1.077,0.38-1.692,0.38c-1.084,0-2.014-0.395-2.781-1.182c-0.768-0.79-1.154-1.745-1.154-2.875
		c0-1.106,0.389-2.052,1.165-2.836c0.778-0.783,1.709-1.178,2.801-1.178c0.63,0,1.2,0.133,1.71,0.4
		c0.511,0.269,0.959,0.671,1.344,1.207v-1.409H220.152z M216.204,47.852c-0.55,0-1.056,0.135-1.521,0.403
		c-0.466,0.271-0.836,0.653-1.11,1.141c-0.273,0.487-0.412,1.006-0.412,1.548s0.141,1.058,0.415,1.551
		c0.279,0.495,0.649,0.878,1.118,1.153c0.466,0.274,0.969,0.41,1.505,0.41c0.542,0,1.053-0.134,1.537-0.406
		c0.482-0.272,0.855-0.642,1.114-1.105c0.262-0.468,0.393-0.99,0.393-1.572c0-0.889-0.292-1.632-0.875-2.229
		C217.779,48.149,217.061,47.852,216.204,47.852z M229.822,48.69l-0.783,0.486c-0.677-0.898-1.6-1.348-2.769-1.348
		c-0.936,0-1.712,0.302-2.329,0.904c-0.617,0.6-0.928,1.33-0.928,2.189c0,0.561,0.143,1.087,0.427,1.578
		c0.286,0.494,0.674,0.878,1.171,1.15c0.494,0.272,1.05,0.406,1.665,0.406c1.128,0,2.051-0.447,2.763-1.343l0.783,0.513
		c-0.366,0.554-0.859,0.98-1.479,1.285c-0.617,0.303-1.322,0.457-2.112,0.457c-1.214,0-2.22-0.386-3.021-1.156
		c-0.797-0.774-1.199-1.709-1.199-2.816c0-0.743,0.189-1.433,0.561-2.071c0.376-0.637,0.889-1.135,1.543-1.489
		c0.654-0.359,1.386-0.537,2.193-0.537c0.508,0,1,0.075,1.471,0.232c0.474,0.154,0.875,0.358,1.204,0.605
		C229.312,47.986,229.593,48.306,229.822,48.69z M232.064,43.936c0.227,0,0.417,0.083,0.577,0.242
		c0.159,0.158,0.237,0.35,0.237,0.577c0,0.221-0.078,0.41-0.237,0.569c-0.16,0.162-0.351,0.239-0.577,0.239
		c-0.22,0-0.41-0.077-0.567-0.239c-0.16-0.159-0.238-0.349-0.238-0.569c0-0.228,0.078-0.419,0.238-0.577
		C231.654,44.019,231.844,43.936,232.064,43.936z M231.576,47.098h0.986v7.674h-0.986V47.098z M236.626,43.936
		c0.32,0,0.703,0.067,1.152,0.198V45.1c-0.363-0.155-0.674-0.231-0.934-0.231c-0.192,0-0.352,0.038-0.479,0.115
		s-0.207,0.167-0.241,0.269c-0.031,0.101-0.048,0.369-0.048,0.807l-0.002,1.039h1.602v0.853h-1.603l-0.003,6.821h-0.99V47.95h-1.01
		v-0.853h1.01v-1.2c0-0.549,0.05-0.942,0.152-1.178c0.1-0.235,0.272-0.425,0.516-0.569C235.99,44.008,236.283,43.936,236.626,43.936
		L236.626,43.936z M239.493,43.936c0.227,0,0.417,0.083,0.575,0.242c0.159,0.158,0.24,0.35,0.24,0.577
		c0,0.221-0.081,0.41-0.24,0.569c-0.158,0.162-0.349,0.239-0.575,0.239c-0.22,0-0.411-0.077-0.568-0.239
		c-0.159-0.159-0.239-0.349-0.239-0.569c0-0.228,0.08-0.419,0.239-0.577C239.082,44.019,239.273,43.936,239.493,43.936z
		 M239.003,47.098h0.986v7.674h-0.986V47.098z M249.496,48.69l-0.785,0.486c-0.675-0.898-1.598-1.348-2.767-1.348
		c-0.937,0-1.712,0.302-2.331,0.904c-0.617,0.6-0.926,1.33-0.926,2.189c0,0.561,0.141,1.087,0.427,1.578
		c0.282,0.494,0.671,0.878,1.168,1.15s1.051,0.406,1.668,0.406c1.128,0,2.049-0.447,2.761-1.343l0.785,0.513
		c-0.368,0.554-0.86,0.98-1.479,1.285c-0.619,0.303-1.322,0.457-2.112,0.457c-1.214,0-2.222-0.386-3.021-1.156
		c-0.799-0.774-1.199-1.709-1.199-2.816c0-0.743,0.187-1.433,0.561-2.071c0.374-0.637,0.887-1.135,1.541-1.489
		c0.654-0.359,1.386-0.537,2.195-0.537c0.508,0,0.998,0.075,1.471,0.232c0.473,0.154,0.872,0.358,1.202,0.605
		C248.984,47.986,249.265,48.306,249.496,48.69z M255.248,44.134h0.987v10.638h-0.987V44.134z M258.631,43.936
		c0.225,0,0.415,0.083,0.574,0.242c0.159,0.158,0.24,0.35,0.24,0.577c0,0.221-0.081,0.41-0.24,0.569
		c-0.159,0.162-0.35,0.239-0.574,0.239c-0.221,0-0.411-0.077-0.57-0.239c-0.159-0.159-0.238-0.349-0.238-0.569
		c0-0.228,0.079-0.419,0.238-0.577C258.22,44.019,258.411,43.936,258.631,43.936z M258.14,47.098h0.988v7.674h-0.988V47.098z
		 M263.193,43.936c0.319,0,0.702,0.067,1.15,0.198V45.1c-0.363-0.155-0.674-0.231-0.932-0.231c-0.194,0-0.354,0.038-0.48,0.115
		s-0.208,0.167-0.241,0.269c-0.03,0.101-0.047,0.369-0.047,0.807v1.039h1.601v0.853h-1.603l-0.008,6.821h-0.986V47.95h-1.009v-0.853
		h1.009v-1.2c0-0.549,0.05-0.942,0.151-1.178s0.272-0.425,0.516-0.569C262.556,44.008,262.849,43.936,263.193,43.936L263.193,43.936
		z M272.179,52.227l0.833,0.436c-0.272,0.535-0.59,0.971-0.945,1.299c-0.36,0.33-0.763,0.578-1.209,0.75
		c-0.448,0.172-0.954,0.259-1.517,0.259c-1.255,0-2.232-0.41-2.939-1.231c-0.706-0.818-1.061-1.749-1.061-2.783
		c0-0.974,0.3-1.842,0.896-2.601c0.759-0.97,1.774-1.455,3.045-1.455c1.309,0,2.353,0.494,3.136,1.487
		c0.555,0.701,0.837,1.576,0.847,2.624h-6.907c0.019,0.894,0.305,1.621,0.855,2.195c0.552,0.566,1.232,0.852,2.04,0.852
		c0.393,0,0.771-0.066,1.141-0.204c0.37-0.134,0.684-0.315,0.945-0.538C271.597,53.092,271.876,52.727,272.179,52.227z
		 M272.179,50.155c-0.131-0.524-0.325-0.943-0.576-1.26c-0.253-0.315-0.587-0.57-1-0.764c-0.413-0.191-0.848-0.287-1.307-0.287
		c-0.753,0-1.4,0.242-1.942,0.727c-0.396,0.351-0.695,0.882-0.897,1.584H272.179z M276.83,46.899c0.705,0,1.416,0.343,2.135,1.036
		l-0.635,0.656c-0.529-0.512-1.047-0.771-1.552-0.771c-0.32,0-0.595,0.107-0.823,0.32c-0.229,0.213-0.342,0.456-0.342,0.739
		c0,0.249,0.094,0.488,0.282,0.713c0.187,0.229,0.585,0.502,1.188,0.811c0.733,0.381,1.232,0.747,1.498,1.102
		c0.259,0.359,0.39,0.76,0.39,1.209c0,0.627-0.223,1.162-0.665,1.6c-0.444,0.438-0.997,0.655-1.66,0.655
		c-0.444,0-0.866-0.097-1.271-0.289c-0.401-0.193-0.734-0.46-0.998-0.797l0.621-0.705c0.504,0.567,1.039,0.853,1.605,0.853
		c0.395,0,0.732-0.128,1.011-0.38c0.277-0.256,0.418-0.555,0.418-0.898c0-0.283-0.094-0.533-0.277-0.754
		c-0.184-0.215-0.598-0.489-1.243-0.816c-0.695-0.359-1.165-0.712-1.415-1.061c-0.251-0.347-0.376-0.745-0.376-1.19
		c0-0.586,0.2-1.07,0.599-1.454C275.718,47.092,276.22,46.899,276.83,46.899L276.83,46.899z M281.579,44.247h0.988v2.851h1.566
		v0.853h-1.566v6.821h-0.988V47.95h-1.348v-0.853h1.348V44.247z M284.79,47.098h1.044l2.639,5.908l2.562-5.908h1.052l-4.579,10.483
		h-1.045l1.479-3.392L284.79,47.098z M293.213,44.134h0.985v10.638h-0.985V44.134z M302.716,52.227l0.833,0.436
		c-0.272,0.535-0.587,0.971-0.946,1.299c-0.36,0.33-0.76,0.578-1.208,0.75c-0.446,0.172-0.954,0.259-1.519,0.259
		c-1.253,0-2.23-0.41-2.938-1.231c-0.704-0.818-1.061-1.749-1.061-2.783c0-0.974,0.3-1.842,0.9-2.601
		c0.757-0.97,1.771-1.455,3.041-1.455c1.309,0,2.354,0.494,3.137,1.487c0.554,0.701,0.836,1.576,0.847,2.624h-6.909
		c0.022,0.894,0.306,1.621,0.856,2.195c0.55,0.566,1.233,0.852,2.041,0.852c0.392,0,0.772-0.066,1.141-0.204
		c0.37-0.134,0.683-0.315,0.944-0.538C302.134,53.092,302.417,52.727,302.716,52.227z M302.716,50.155
		c-0.13-0.524-0.324-0.943-0.575-1.26c-0.252-0.315-0.586-0.57-1-0.764c-0.415-0.191-0.849-0.287-1.308-0.287
		c-0.752,0-1.4,0.242-1.94,0.727c-0.396,0.351-0.695,0.882-0.899,1.584H302.716z"/>
</g>
</svg>
